<svg xmlns="http://www.w3.org/2000/svg"  viewBox="0 0 100 100" width="50px" height="50px"><circle cx="78" cy="14" r="1" fill="#f1bc19"/><circle cx="50" cy="50" r="38" fill="#fce0a2"/><circle cx="84" cy="16" r="4" fill="#f1bc19"/><circle cx="14" cy="26" r="2" fill="#ee3e54"/><circle cx="78" cy="77" r="2" fill="#fbcd59"/><circle cx="17" cy="78" r="4" fill="#fbcd59"/><circle cx="24" cy="83" r="2" fill="#ee3e54"/><circle cx="66.483" cy="78.517" r="2.483" fill="#fff"/><circle cx="16" cy="48" r="1" fill="#fff"/><circle cx="86" cy="31" r="1" fill="#f1bc19"/><circle cx="77" cy="70" r="2" fill="#fff"/><path fill="#fdfcef" d="M42.962,50.523c0.206-3.681,2.009-6.924,4.728-9.223c2.667-2.258,6.256-3.638,10.173-3.638 c3.913,0,7.502,1.38,10.171,3.638c2.717,2.299,4.52,5.542,4.728,9.219c0.206,3.782-1.314,7.296-3.981,9.9 c-2.719,2.649-6.587,4.312-10.918,4.312s-8.207-1.662-10.924-4.312C44.27,57.814,42.754,54.301,42.962,50.523L42.962,50.523z"/><path fill="#355ca8" d="M51.201,50.9c0.092-1.643,0.897-3.091,2.111-4.117c1.19-1.008,2.793-1.624,4.541-1.624 c1.746,0,3.349,0.616,4.54,1.624c1.213,1.026,2.018,2.474,2.111,4.115c0.092,1.688-0.586,3.257-1.777,4.419 c-1.214,1.183-2.94,1.925-4.874,1.925c-1.933,0-3.663-0.742-4.876-1.925C51.784,54.155,51.108,52.587,51.201,50.9L51.201,50.9z"/><path fill="#472b29" d="M57.852,57.742c-2.003,0-3.858-0.734-5.225-2.067c-1.341-1.308-2.024-3.013-1.926-4.803v0 c0.097-1.718,0.909-3.305,2.287-4.471c1.327-1.123,3.054-1.742,4.863-1.742s3.536,0.619,4.863,1.742 c1.377,1.165,2.189,2.751,2.287,4.469c0.098,1.79-0.587,3.496-1.927,4.805C61.707,57.008,59.852,57.742,57.852,57.742z M51.699,50.928c-0.082,1.497,0.495,2.928,1.626,4.031c1.179,1.149,2.786,1.783,4.526,1.783c1.738,0,3.345-0.633,4.525-1.783 c1.13-1.104,1.708-2.537,1.627-4.034c-0.082-1.439-0.77-2.775-1.936-3.761c-1.146-0.971-2.644-1.505-4.217-1.505 s-3.07,0.535-4.217,1.505C52.468,48.151,51.781,49.488,51.699,50.928z"/><path fill="#f47c22" d="M38.031,54.681c0.013,0.739,0.249,2.175,0.602,3.297c0.743,2.374,2.004,4.57,3.758,6.506 c1.8,1.99,4.016,3.588,6.576,4.722c2.691,1.192,5.606,1.799,8.635,1.794c3.023-0.004,5.939-0.623,8.63-1.824 c2.56-1.146,4.774-2.751,6.571-4.741c1.753-1.944,3.011-4.144,3.757-6.518c0.375-1.2,0.611-2.417,0.706-3.639 c0.093-1.204,0.054-2.409-0.117-3.614c-0.334-2.347-1.146-4.55-2.396-6.557c-1.144-1.845-2.618-3.46-4.371-4.819l0.004-0.003 l-17.69-13.583c-0.016-0.012-0.029-0.025-0.046-0.036c-1.161-0.891-3.112-0.888-4.389,0.005c-1.29,0.903-1.438,2.396-0.29,3.338 l-0.005,0.005l7.378,6l-22.488,0.024h-0.03c-1.859,0.002-3.646,1.222-3.999,2.763c-0.364,1.57,0.899,2.873,2.832,2.88l-0.003,0.007 l11.398-0.022l-20.34,15.612c-0.026,0.019-0.054,0.039-0.078,0.058c-1.919,1.469-2.539,3.912-1.33,5.458 c1.227,1.572,3.834,1.575,5.773,0.009l11.101-9.085C38.18,52.718,38.018,53.944,38.031,54.681L38.031,54.681z M66.287,58.57 c-2.219,2.26-5.325,3.542-8.685,3.549c-3.366,0.006-6.472-1.264-8.69-3.521c-1.084-1.1-1.88-2.365-2.372-3.712 c-0.481-1.324-0.668-2.73-0.544-4.148c0.117-1.386,0.53-2.709,1.189-3.905c0.647-1.176,1.538-2.239,2.639-3.138 c2.157-1.757,4.902-2.709,7.774-2.713c2.874-0.004,5.618,0.939,7.777,2.69c1.099,0.895,1.989,1.954,2.636,3.128 c0.662,1.196,1.071,2.513,1.194,3.903c0.122,1.416-0.065,2.82-0.546,4.145C68.164,56.201,67.371,57.466,66.287,58.57L66.287,58.57z"/><path fill="#472b29" d="M57.564,71.7c-3.115,0-6.103-0.624-8.881-1.854c-2.644-1.171-4.935-2.817-6.812-4.893 c-1.813-2.001-3.127-4.278-3.907-6.767c-0.394-1.25-0.621-2.733-0.634-3.493l0,0c-0.002-0.118,0-0.247,0.004-0.38l-9.813,8.031 c-1.223,0.988-2.724,1.462-4.132,1.3c-1.083-0.125-2.019-0.629-2.636-1.42c-0.607-0.776-0.867-1.783-0.733-2.835 c0.174-1.361,0.972-2.677,2.189-3.609c0.006-0.004,0.089-0.066,0.096-0.071L40.987,41.37l-9.33,0.018 c-0.026,0.015-0.076-0.003-0.113-0.009c-1.198-0.032-2.239-0.501-2.87-1.297c-0.546-0.689-0.734-1.555-0.529-2.438 c0.425-1.85,2.48-3.302,4.68-3.305l20.551-0.021l-5.852-4.759c-0.03-0.024-0.059-0.051-0.084-0.081 c-0.641-0.562-0.976-1.299-0.945-2.084c0.034-0.875,0.531-1.712,1.364-2.295c1.523-1.066,3.815-1.061,5.216,0.014L70.812,38.73 c0.022,0.018,0.044,0.037,0.064,0.057c1.805,1.411,3.309,3.077,4.471,4.952c1.31,2.101,2.149,4.398,2.495,6.827 c0.177,1.247,0.218,2.514,0.121,3.766c-0.099,1.271-0.347,2.547-0.736,3.794c-0.782,2.493-2.096,4.773-3.904,6.778 c-1.875,2.078-4.165,3.73-6.805,4.912c-2.795,1.247-5.794,1.88-8.915,1.885C57.59,71.7,57.577,71.7,57.564,71.7z M38.18,52.018 c0.117,0,0.234,0.029,0.34,0.089c0.251,0.14,0.391,0.418,0.354,0.703c-0.001,0.012-0.155,1.184-0.143,1.858c0,0,0,0,0,0 c0.011,0.657,0.232,2.028,0.57,3.099c0.719,2.296,1.933,4.397,3.609,6.247c1.745,1.93,3.879,3.461,6.341,4.552 c2.599,1.151,5.396,1.734,8.315,1.734c0.012,0,0.023,0,0.035,0c2.924-0.003,5.731-0.597,8.346-1.763 c2.46-1.101,4.593-2.639,6.337-4.571c1.673-1.854,2.886-3.96,3.607-6.259c0.358-1.146,0.586-2.317,0.676-3.483 c0.089-1.15,0.052-2.314-0.111-3.461c-0.317-2.234-1.091-4.349-2.297-6.285c-1.09-1.757-2.505-3.316-4.206-4.636 c-0.021-0.016-0.04-0.033-0.059-0.051L52.269,26.258c-0.957-0.736-2.589-0.726-3.606-0.013c-0.472,0.33-0.751,0.767-0.768,1.201 c-0.015,0.378,0.165,0.731,0.521,1.022c0.025,0.021,0.049,0.043,0.07,0.067l7.3,5.936c0.229,0.187,0.317,0.498,0.219,0.777 c-0.1,0.279-0.363,0.466-0.659,0.466l-22.488,0.024c-1.58,0.001-3.068,0.997-3.348,2.219c-0.108,0.468-0.018,0.901,0.262,1.254 c0.384,0.485,1.073,0.766,1.89,0.768c0.033,0,0.065,0.003,0.097,0.007l11.295-0.022h0.001c0.3,0,0.566,0.191,0.663,0.475 c0.097,0.284,0.001,0.598-0.237,0.781L23.14,56.833c-1.001,0.765-1.604,1.74-1.73,2.733c-0.061,0.48-0.033,1.182,0.447,1.796 c0.494,0.632,1.193,0.833,1.693,0.891c1.036,0.115,2.159-0.245,3.088-0.995l11.098-9.083C37.864,52.071,38.021,52.018,38.18,52.018 z M57.578,62.819c-3.546,0-6.801-1.324-9.166-3.73c-1.143-1.159-1.995-2.493-2.53-3.964c-0.521-1.431-0.717-2.928-0.584-4.449 c0.124-1.466,0.552-2.874,1.272-4.182c0.695-1.264,1.641-2.388,2.81-3.342c2.268-1.848,5.185-2.867,8.216-2.871 c3.032,0.019,5.951,1.007,8.219,2.847c1.17,0.954,2.114,2.075,2.809,3.334c0.718,1.298,1.147,2.705,1.277,4.18 c0.131,1.519-0.066,3.015-0.586,4.446c-0.537,1.474-1.388,2.811-2.527,3.972l0,0c-2.372,2.417-5.634,3.751-9.185,3.759 C57.595,62.819,57.586,62.819,57.578,62.819z M57.612,41.682c-0.005,0-0.01,0-0.015,0c-2.71,0.003-5.314,0.911-7.333,2.555 c-1.028,0.84-1.859,1.827-2.468,2.933c-0.625,1.135-0.997,2.355-1.104,3.626c-0.115,1.318,0.055,2.613,0.505,3.85 c0.466,1.28,1.211,2.445,2.212,3.461c2.102,2.136,5.001,3.312,8.169,3.312c0.008,0,0.015,0,0.022,0 c3.172-0.006,6.079-1.192,8.187-3.339l0,0c1-1.018,1.743-2.186,2.211-3.471c0.45-1.238,0.621-2.532,0.508-3.846 c-0.112-1.278-0.485-2.498-1.108-3.625c-0.607-1.102-1.438-2.086-2.467-2.925C62.918,42.581,60.319,41.682,57.612,41.682z"/><path fill="#472b29" d="M57.598,68.8h-0.032c-2.709,0-5.302-0.54-7.707-1.605c-0.253-0.112-0.367-0.407-0.255-0.66 c0.112-0.253,0.41-0.366,0.659-0.254c2.277,1.008,4.734,1.52,7.303,1.52c0.276,0,0.516,0.224,0.516,0.5S57.874,68.8,57.598,68.8z M47.419,65.786c-0.096,0-0.192-0.027-0.278-0.084c-0.741-0.496-1.445-1.053-2.093-1.654c-0.203-0.188-0.215-0.504-0.026-0.707 c0.188-0.202,0.506-0.213,0.706-0.026c0.609,0.566,1.272,1.089,1.97,1.556c0.229,0.154,0.291,0.464,0.137,0.694 C47.738,65.708,47.58,65.786,47.419,65.786z M43.386,61.942c-0.153,0-0.305-0.07-0.402-0.203c-1-1.355-1.757-2.842-2.251-4.418 c-0.31-0.983-0.494-2.208-0.502-2.677c-0.005-0.276,0.215-0.504,0.491-0.509c0.268,0.006,0.504,0.215,0.509,0.491 c0.007,0.41,0.188,1.546,0.456,2.395c0.461,1.472,1.168,2.859,2.102,4.125c0.164,0.222,0.117,0.535-0.105,0.699 C43.593,61.91,43.489,61.942,43.386,61.942z"/></svg>