<svg xmlns="http://www.w3.org/2000/svg"  viewBox="0 0 64 64" width="64px" height="64px" baseProfile="basic"><linearGradient id="TPhWa-Uq7CLoXGBlIRt4Ja" x1="46.44" x2="46.44" y1="11.529" y2="55.548" gradientUnits="userSpaceOnUse"><stop offset="0" stop-color="#6dc7ff"/><stop offset=".699" stop-color="#e6abff"/></linearGradient><path fill="url(#TPhWa-Uq7CLoXGBlIRt4Ja)" d="M49.98,20.33L39.49,24.4l-4.61,2.05v28.83l19.62-8.97V18.57L49.98,20.33z M49.89,43.68 l-2.6,1.23l-2.54-13.53l-2.6,15.97l-2.68,1.27L36.45,30.1l2.37-1.06l2.12,13.65l2.45-15.67l2.35-1.05l2.71,13.92l1.85-15.95 l0.03-0.02L53,22.74L49.89,43.68z M49.98,20.33L39.49,24.4l-4.61,2.05v28.83l19.62-8.97V18.57L49.98,20.33z M49.89,43.68l-2.6,1.23 l-2.54-13.53l-2.6,15.97l-2.68,1.27L36.45,30.1l2.37-1.06l2.12,13.65l2.45-15.67l2.35-1.05l2.71,13.92l1.85-15.95l0.03-0.02 L53,22.74L49.89,43.68z M49.98,20.33L39.49,24.4l-4.61,2.05v28.83l19.62-8.97V18.57L49.98,20.33z M49.89,43.68l-2.6,1.23 l-2.54-13.53l-2.6,15.97l-2.68,1.27L36.45,30.1l2.37-1.06l2.12,13.65l2.45-15.67l2.35-1.05l2.71,13.92l1.85-15.95l0.03-0.02 L53,22.74L49.89,43.68z M49.98,20.33L39.49,24.4l-4.61,2.05v28.83l19.62-8.97V18.57L49.98,20.33z M49.89,43.68l-2.6,1.23 l-2.54-13.53l-2.6,15.97l-2.68,1.27L36.45,30.1l2.37-1.06l2.12,13.65l2.45-15.67l2.35-1.05l2.71,13.92l1.85-15.95l0.03-0.02 L53,22.74L49.89,43.68z M38.72,22.55l17.78-6.89v-0.01L38.72,22.55z M56.77,14.48l0.73,0.31v-0.6L56.77,14.48z M57.5,14.79v0.39 L58,15L57.5,14.79z M49.98,20.33L39.49,24.4l-4.61,2.05v28.83l19.62-8.97V18.57L49.98,20.33z M49.89,43.68l-2.6,1.23l-2.54-13.53 l-2.6,15.97l-2.68,1.27L36.45,30.1l2.37-1.06l2.12,13.65l2.45-15.67l2.35-1.05l2.71,13.92l1.85-15.95l0.03-0.02L53,22.74 L49.89,43.68z M49.98,20.33L39.49,24.4l-4.61,2.05v28.83l19.62-8.97V18.57L49.98,20.33z M49.89,43.68l-2.6,1.23l-2.54-13.53 l-2.6,15.97l-2.68,1.27L36.45,30.1l2.37-1.06l2.12,13.65l2.45-15.67l2.35-1.05l2.71,13.92l1.85-15.95l0.03-0.02L53,22.74 L49.89,43.68z M49.98,20.33L39.49,24.4l-4.61,2.05v28.83l19.62-8.97V18.57L49.98,20.33z M49.89,43.68l-2.6,1.23l-2.54-13.53 l-2.6,15.97l-2.68,1.27L36.45,30.1l2.37-1.06l2.12,13.65l2.45-15.67l2.35-1.05l2.71,13.92l1.85-15.95l0.03-0.02L53,22.74 L49.89,43.68z M49.98,20.33L39.49,24.4l-4.61,2.05v28.83l19.62-8.97V18.57L49.98,20.33z M49.89,43.68l-2.6,1.23l-2.54-13.53 l-2.6,15.97l-2.68,1.27L36.45,30.1l2.37-1.06l2.12,13.65l2.45-15.67l2.35-1.05l2.71,13.92l1.85-15.95l0.03-0.02L53,22.74 L49.89,43.68z M49.98,20.33L39.49,24.4l-4.61,2.05v28.83l19.62-8.97V18.57L49.98,20.33z M49.89,43.68l-2.6,1.23l-2.54-13.53 l-2.6,15.97l-2.68,1.27L36.45,30.1l2.37-1.06l2.12,13.65l2.45-15.67l2.35-1.05l2.71,13.92l1.85-15.95l0.03-0.02L53,22.74 L49.89,43.68z"/><linearGradient id="TPhWa-Uq7CLoXGBlIRt4Jb" x1="32.055" x2="32.055" y1="3.277" y2="24.32" gradientUnits="userSpaceOnUse"><stop offset="0" stop-color="#6dc7ff"/><stop offset=".59" stop-color="#e6abff"/></linearGradient><polygon fill="url(#TPhWa-Uq7CLoXGBlIRt4Jb)" points="49.75,14.07 31.89,21.24 14.36,14.04 32,7.2"/><linearGradient id="TPhWa-Uq7CLoXGBlIRt4Jc" x1="19.19" x2="19.19" y1="16.126" y2="55.4" gradientUnits="userSpaceOnUse"><stop offset="0" stop-color="#6dc7ff"/><stop offset=".699" stop-color="#e6abff"/></linearGradient><path fill="url(#TPhWa-Uq7CLoXGBlIRt4Jc)" d="M9.5,18.5v27.81l19.38,8.85V26.48 L9.5,18.5z M19.52,35.38c5.49,3.66,4.34,7.67,4.34,7.67s-0.74,4.5-5.95,3.31C12,45,12.3,37.66,12.3,37.66s0,0,2.53,0.92 c0.11,4.12,2.85,5.03,2.85,5.03c2.52,0.92,3.44-0.91,3.44-0.91s1.04-2.6-2.63-5.15c-4.47-3.09-5.38-6.04-5.38-8.58 c0-0.92,1.06-5.13,5.49-3.66c3.6,1.2,5.49,4.58,5.49,8.24l-2.74-0.92c0-1.83-0.54-3.83-3.21-4.68c-2.39-0.77-2.51,1.48-2.51,1.48 S15.47,32.68,19.52,35.38z M9.5,18.5v27.81l19.38,8.85V26.48L9.5,18.5z M19.52,35.38c5.49,3.66,4.34,7.67,4.34,7.67 s-0.74,4.5-5.95,3.31C12,45,12.3,37.66,12.3,37.66s0,0,2.53,0.92c0.11,4.12,2.85,5.03,2.85,5.03c2.52,0.92,3.44-0.91,3.44-0.91 s1.04-2.6-2.63-5.15c-4.47-3.09-5.38-6.04-5.38-8.58c0-0.92,1.06-5.13,5.49-3.66c3.6,1.2,5.49,4.58,5.49,8.24l-2.74-0.92 c0-1.83-0.54-3.83-3.21-4.68c-2.39-0.77-2.51,1.48-2.51,1.48S15.47,32.68,19.52,35.38z M9.5,18.5v27.81l19.38,8.85V26.48L9.5,18.5z M19.52,35.38c5.49,3.66,4.34,7.67,4.34,7.67s-0.74,4.5-5.95,3.31C12,45,12.3,37.66,12.3,37.66s0,0,2.53,0.92 c0.11,4.12,2.85,5.03,2.85,5.03c2.52,0.92,3.44-0.91,3.44-0.91s1.04-2.6-2.63-5.15c-4.47-3.09-5.38-6.04-5.38-8.58 c0-0.92,1.06-5.13,5.49-3.66c3.6,1.2,5.49,4.58,5.49,8.24l-2.74-0.92c0-1.83-0.54-3.83-3.21-4.68c-2.39-0.77-2.51,1.48-2.51,1.48 S15.47,32.68,19.52,35.38z M9.5,18.5v27.81l19.38,8.85V26.48L9.5,18.5z M19.52,35.38c5.49,3.66,4.34,7.67,4.34,7.67 s-0.74,4.5-5.95,3.31C12,45,12.3,37.66,12.3,37.66s0,0,2.53,0.92c0.11,4.12,2.85,5.03,2.85,5.03c2.52,0.92,3.44-0.91,3.44-0.91 s1.04-2.6-2.63-5.15c-4.47-3.09-5.38-6.04-5.38-8.58c0-0.92,1.06-5.13,5.49-3.66c3.6,1.2,5.49,4.58,5.49,8.24l-2.74-0.92 c0-1.83-0.54-3.83-3.21-4.68c-2.39-0.77-2.51,1.48-2.51,1.48S15.47,32.68,19.52,35.38z M9.5,18.5v27.81l19.38,8.85V26.48L9.5,18.5z M19.52,35.38c5.49,3.66,4.34,7.67,4.34,7.67s-0.74,4.5-5.95,3.31C12,45,12.3,37.66,12.3,37.66s0,0,2.53,0.92 c0.11,4.12,2.85,5.03,2.85,5.03c2.52,0.92,3.44-0.91,3.44-0.91s1.04-2.6-2.63-5.15c-4.47-3.09-5.38-6.04-5.38-8.58 c0-0.92,1.06-5.13,5.49-3.66c3.6,1.2,5.49,4.58,5.49,8.24l-2.74-0.92c0-1.83-0.54-3.83-3.21-4.68c-2.39-0.77-2.51,1.48-2.51,1.48 S15.47,32.68,19.52,35.38z M9.5,18.5v27.81l19.38,8.85V26.48L9.5,18.5z M19.52,35.38c5.49,3.66,4.34,7.67,4.34,7.67 s-0.74,4.5-5.95,3.31C12,45,12.3,37.66,12.3,37.66s0,0,2.53,0.92c0.11,4.12,2.85,5.03,2.85,5.03c2.52,0.92,3.44-0.91,3.44-0.91 s1.04-2.6-2.63-5.15c-4.47-3.09-5.38-6.04-5.38-8.58c0-0.92,1.06-5.13,5.49-3.66c3.6,1.2,5.49,4.58,5.49,8.24l-2.74-0.92 c0-1.83-0.54-3.83-3.21-4.68c-2.39-0.77-2.51,1.48-2.51,1.48S15.47,32.68,19.52,35.38z M9.5,18.5v27.81l19.38,8.85V26.48L9.5,18.5z M19.52,35.38c5.49,3.66,4.34,7.67,4.34,7.67s-0.74,4.5-5.95,3.31C12,45,12.3,37.66,12.3,37.66s0,0,2.53,0.92 c0.11,4.12,2.85,5.03,2.85,5.03c2.52,0.92,3.44-0.91,3.44-0.91s1.04-2.6-2.63-5.15c-4.47-3.09-5.38-6.04-5.38-8.58 c0-0.92,1.06-5.13,5.49-3.66c3.6,1.2,5.49,4.58,5.49,8.24l-2.74-0.92c0-1.83-0.54-3.83-3.21-4.68c-2.39-0.77-2.51,1.48-2.51,1.48 S15.47,32.68,19.52,35.38z M9.5,18.5v27.81l19.38,8.85V26.48L9.5,18.5z M19.52,35.38c5.49,3.66,4.34,7.67,4.34,7.67 s-0.74,4.5-5.95,3.31C12,45,12.3,37.66,12.3,37.66s0,0,2.53,0.92c0.11,4.12,2.85,5.03,2.85,5.03c2.52,0.92,3.44-0.91,3.44-0.91 s1.04-2.6-2.63-5.15c-4.47-3.09-5.38-6.04-5.38-8.58c0-0.92,1.06-5.13,5.49-3.66c3.6,1.2,5.49,4.58,5.49,8.24l-2.74-0.92 c0-1.83-0.54-3.83-3.21-4.68c-2.39-0.77-2.51,1.48-2.51,1.48S15.47,32.68,19.52,35.38z M9.5,18.5v27.81l19.38,8.85V26.48L9.5,18.5z M19.52,35.38c5.49,3.66,4.34,7.67,4.34,7.67s-0.74,4.5-5.95,3.31C12,45,12.3,37.66,12.3,37.66s0,0,2.53,0.92 c0.11,4.12,2.85,5.03,2.85,5.03c2.52,0.92,3.44-0.91,3.44-0.91s1.04-2.6-2.63-5.15c-4.47-3.09-5.38-6.04-5.38-8.58 c0-0.92,1.06-5.13,5.49-3.66c3.6,1.2,5.49,4.58,5.49,8.24l-2.74-0.92c0-1.83-0.54-3.83-3.21-4.68c-2.39-0.77-2.51,1.48-2.51,1.48 S15.47,32.68,19.52,35.38z M9.5,18.5v27.81l19.38,8.85V26.48L9.5,18.5z M19.52,35.38c5.49,3.66,4.34,7.67,4.34,7.67 s-0.74,4.5-5.95,3.31C12,45,12.3,37.66,12.3,37.66s0,0,2.53,0.92c0.11,4.12,2.85,5.03,2.85,5.03c2.52,0.92,3.44-0.91,3.44-0.91 s1.04-2.6-2.63-5.15c-4.47-3.09-5.38-6.04-5.38-8.58c0-0.92,1.06-5.13,5.49-3.66c3.6,1.2,5.49,4.58,5.49,8.24l-2.74-0.92 c0-1.83-0.54-3.83-3.21-4.68c-2.39-0.77-2.51,1.48-2.51,1.48S15.47,32.68,19.52,35.38z M9.5,18.5v27.81l19.38,8.85V26.48L9.5,18.5z M19.52,35.38c5.49,3.66,4.34,7.67,4.34,7.67s-0.74,4.5-5.95,3.31C12,45,12.3,37.66,12.3,37.66s0,0,2.53,0.92 c0.11,4.12,2.85,5.03,2.85,5.03c2.52,0.92,3.44-0.91,3.44-0.91s1.04-2.6-2.63-5.15c-4.47-3.09-5.38-6.04-5.38-8.58 c0-0.92,1.06-5.13,5.49-3.66c3.6,1.2,5.49,4.58,5.49,8.24l-2.74-0.92c0-1.83-0.54-3.83-3.21-4.68c-2.39-0.77-2.51,1.48-2.51,1.48 S15.47,32.68,19.52,35.38z M9.5,18.5v27.81l19.38,8.85V26.48L9.5,18.5z M19.52,35.38c5.49,3.66,4.34,7.67,4.34,7.67 s-0.74,4.5-5.95,3.31C12,45,12.3,37.66,12.3,37.66s0,0,2.53,0.92c0.11,4.12,2.85,5.03,2.85,5.03c2.52,0.92,3.44-0.91,3.44-0.91 s1.04-2.6-2.63-5.15c-4.47-3.09-5.38-6.04-5.38-8.58c0-0.92,1.06-5.13,5.49-3.66c3.6,1.2,5.49,4.58,5.49,8.24l-2.74-0.92 c0-1.83-0.54-3.83-3.21-4.68c-2.39-0.77-2.51,1.48-2.51,1.48S15.47,32.68,19.52,35.38z M9.5,18.5v27.81l19.38,8.85V26.48L9.5,18.5z M19.52,35.38c5.49,3.66,4.34,7.67,4.34,7.67s-0.74,4.5-5.95,3.31C12,45,12.3,37.66,12.3,37.66s0,0,2.53,0.92 c0.11,4.12,2.85,5.03,2.85,5.03c2.52,0.92,3.44-0.91,3.44-0.91s1.04-2.6-2.63-5.15c-4.47-3.09-5.38-6.04-5.38-8.58 c0-0.92,1.06-5.13,5.49-3.66c3.6,1.2,5.49,4.58,5.49,8.24l-2.74-0.92c0-1.83-0.54-3.83-3.21-4.68c-2.39-0.77-2.51,1.48-2.51,1.48 S15.47,32.68,19.52,35.38z M9.5,18.5v27.81l19.38,8.85V26.48L9.5,18.5z M19.52,35.38c5.49,3.66,4.34,7.67,4.34,7.67 s-0.74,4.5-5.95,3.31C12,45,12.3,37.66,12.3,37.66s0,0,2.53,0.92c0.11,4.12,2.85,5.03,2.85,5.03c2.52,0.92,3.44-0.91,3.44-0.91 s1.04-2.6-2.63-5.15c-4.47-3.09-5.38-6.04-5.38-8.58c0-0.92,1.06-5.13,5.49-3.66c3.6,1.2,5.49,4.58,5.49,8.24l-2.74-0.92 c0-1.83-0.54-3.83-3.21-4.68c-2.39-0.77-2.51,1.48-2.51,1.48S15.47,32.68,19.52,35.38z M9.5,18.5v27.81l19.38,8.85V26.48L9.5,18.5z M19.52,35.38c5.49,3.66,4.34,7.67,4.34,7.67s-0.74,4.5-5.95,3.31C12,45,12.3,37.66,12.3,37.66s0,0,2.53,0.92 c0.11,4.12,2.85,5.03,2.85,5.03c2.52,0.92,3.44-0.91,3.44-0.91s1.04-2.6-2.63-5.15c-4.47-3.09-5.38-6.04-5.38-8.58 c0-0.92,1.06-5.13,5.49-3.66c3.6,1.2,5.49,4.58,5.49,8.24l-2.74-0.92c0-1.83-0.54-3.83-3.21-4.68c-2.39-0.77-2.51,1.48-2.51,1.48 S15.47,32.68,19.52,35.38z"/><linearGradient id="TPhWa-Uq7CLoXGBlIRt4Jd" x1="32" x2="32" y1="-4.723" y2="65.264" gradientUnits="userSpaceOnUse"><stop offset="0" stop-color="#1a6dff"/><stop offset="1" stop-color="#c822ff"/></linearGradient><path fill="url(#TPhWa-Uq7CLoXGBlIRt4Jd)" d="M58.02,12.93 c-0.06-0.05-0.12-0.08-0.19-0.1l-25.5-9.78C32.22,3.02,32.11,3,32,3s-0.22,0.02-0.33,0.05l-25.5,9.78 c-0.4,0.14-0.67,0.52-0.67,0.95v34.44c0,0.38,0.21,0.73,0.55,0.9l25.38,11.66l0.12,0.06c0.14,0.07,0.3,0.11,0.45,0.11 s0.31-0.04,0.45-0.11l25.5-11.72c0.34-0.17,0.55-0.52,0.55-0.9V17.03v-3.25C58.5,13.42,58.31,13.1,58.02,12.93z M30.88,58.27 L7.5,47.6V15.51l23.3,9.59l0.08,0.04V58.27z M31.94,23.38h-0.11l-2.43-1l-2.43-1l-18-7.4L32,5.06l23.17,8.97l0.03,0.01l-17.11,6.87 l-1.17,0.47L31.94,23.38z M56.5,47.6L32.88,58.39V25.15l5.84-2.6l17.78-6.89V47.6z"/></svg>